<svg xmlns="http://www.w3.org/2000/svg" viewBox="0 0 20 17.08"><defs><style>.cls-1{fill:#3b4250;}</style></defs><g id="图层_2" data-name="图层 2"><g id="图层_1-2" data-name="图层 1"><path class="cls-1" d="M18.36,15.4a2.16,2.16,0,0,1-4.15.21H5.79a2.16,2.16,0,0,1-4.15-.21A2.71,2.71,0,0,1,0,12.67l.2-2.81A3.14,3.14,0,0,1,2,7.28L2.92,2.9A3.75,3.75,0,0,1,6.42,0h7.16a3.75,3.75,0,0,1,3.5,2.9L18,7.28a3.14,3.14,0,0,1,1.8,2.58l.2,2.81a2.71,2.71,0,0,1-1.63,2.73ZM18.57,10a1.88,1.88,0,0,0-1.31-1.61.63.63,0,0,1-.43-.53.34.34,0,0,1,0-.1.13.13,0,0,0,0-.06l-.93-4.48a2.51,2.51,0,0,0-2.3-1.92H6.42a2.51,2.51,0,0,0-2.3,1.92L3.19,7.65a.13.13,0,0,0,0,.06.45.45,0,0,1,0,.11.63.63,0,0,1-.43.52A1.88,1.88,0,0,0,1.43,10l-.2,2.81a1.44,1.44,0,0,0,1.09,1.56.63.63,0,0,1,.48.58.95.95,0,0,0,1.89,0,.62.62,0,0,1,.61-.57h9.4a.62.62,0,0,1,.61.57.95.95,0,0,0,1.89,0,.63.63,0,0,1,.48-.58,1.44,1.44,0,0,0,1.09-1.56L18.57,10Zm-2.15,2.49a1.37,1.37,0,0,1-1,.42,1.4,1.4,0,0,1-1-.42,1.45,1.45,0,0,1,0-2,1.4,1.4,0,0,1,1-.42,1.37,1.37,0,0,1,1,.42,1.42,1.42,0,0,1,0,2Zm-1.17-4.8a.67.67,0,0,1-.54.24H5.29a.69.69,0,0,1-.55-.25.74.74,0,0,1-.14-.58V7l.74-3.3a1.18,1.18,0,0,1,1.11-1h7.08a1.19,1.19,0,0,1,1.11,1L15.39,7v0a.74.74,0,0,1-.15.59ZM13.46,4H6.54L6,6.62h8.1L13.46,4ZM5.53,12.44a1.34,1.34,0,0,1-1.95,0,1.42,1.42,0,0,1,0-2,1.34,1.34,0,0,1,2,0,1.42,1.42,0,0,1,0,2Z"/></g></g></svg>